<svg width="22" height="9" viewBox="0 0 22 9" fill="none" xmlns="http://www.w3.org/2000/svg">
<path d="M22 4.66406L18 8.66406V5.66406H5.83C5.59409 6.33156 5.1298 6.89416 4.51919 7.25242C3.90858 7.61069 3.19098 7.74155 2.49321 7.62187C1.79545 7.5022 1.16246 7.13969 0.706126 6.59843C0.249796 6.05718 -0.000488281 5.37202 -0.000488281 4.66406C-0.000488281 3.95611 0.249796 3.27095 0.706126 2.72969C1.16246 2.18843 1.79545 1.82593 2.49321 1.70625C3.19098 1.58658 3.90858 1.71744 4.51919 2.0757C5.1298 2.43397 5.59409 2.99657 5.83 3.66406H18V0.664062L22 4.66406Z" fill="black"/>
</svg>
