<svg width="22" height="9" viewBox="0 0 22 9" fill="none" xmlns="http://www.w3.org/2000/svg">
<path d="M0 4.66406L4 8.66406V5.66406H16.17C16.4059 6.33156 16.8702 6.89416 17.4808 7.25242C18.0914 7.61069 18.809 7.74155 19.5068 7.62187C20.2046 7.5022 20.8375 7.13969 21.2939 6.59843C21.7502 6.05718 22.0005 5.37202 22.0005 4.66406C22.0005 3.95611 21.7502 3.27095 21.2939 2.72969C20.8375 2.18843 20.2046 1.82593 19.5068 1.70625C18.809 1.58658 18.0914 1.71744 17.4808 2.0757C16.8702 2.43397 16.4059 2.99657 16.17 3.66406H4V0.664062L0 4.66406Z" fill="black"/>
</svg>
